<svg id="Layer_1" data-name="Layer 1" xmlns="http://www.w3.org/2000/svg" xmlns:xlink="http://www.w3.org/1999/xlink" width="990.3724" height="199.9692" viewBox="0 0 990.3724 199.9692"><defs><style>.cls-1{fill:#dad225;}.cls-2{fill:#d00da7;}.cls-3{fill:#f17d28;}.cls-4{fill:#174b7d;}.cls-5{fill:#fff500;}</style></defs><title>logo_lille</title><image width="1597" height="420" transform="translate(0.3154 -0.1915) scale(0.6195 0.4785)" xlink:href="../moodboard/warmpattern_cover.png"/><polygon class="cls-1" points="991.8 36.05 991.525 -1.16 388.784 201.97 441.395 201.946 991.8 36.05"/><polygon class="cls-2" points="991.253 -0.496 783.799 -0.355 335.181 202.462 385.859 203.137 991.253 -0.496"/><polygon class="cls-3" points="991.731 82.117 991.794 36.084 441.534 202.334 473.849 202.263 991.731 82.117"/><path class="cls-4" d="M336.1133,131.6165l-2.5-14.5h-13.2l-2.3,14.5h-9l11.1-62.6006h13.1l11.9,62.6006Zm-14.6-21.8h10.9l-5.7-33Z"/><path class="cls-4" d="M378.9122,76.3167h-18.2v20.6h14.4v7.1h-14.4v27.6006h-9.1V69.0159h27.3Z"/><path class="cls-4" d="M393.8106,106.3167v25.3h-9V69.0159h20.5q9.3,0,9.3,8.8008v19.6q0,7.6011-6.7,8.7l9.9,25.5h-9.7l-9.4-25.3Zm0-30v22.8h8.8a3.7075,3.7075,0,0,0,2.4-.55,3.27,3.27,0,0,0,.6-2.3506v-17a3.2688,3.2688,0,0,0-.6-2.35,3.7138,3.7138,0,0,0-2.4-.55Z"/><path class="cls-4" d="M425.21,69.0159h9v62.6006h-9Z"/><path class="cls-4" d="M474.209,88.6165h-9.2V79.0159a3.4908,3.4908,0,0,0-.55-2.35,3.4911,3.4911,0,0,0-2.35-.55h-5.1005a3.7153,3.7153,0,0,0-2.3995.55,3.265,3.265,0,0,0-.6005,2.35v42.7a3.2647,3.2647,0,0,0,.6005,2.3506,3.7028,3.7028,0,0,0,2.3995.55h5.1005a2.2881,2.2881,0,0,0,2.8995-2.9v-9.5h9.2v10.6006q0,8.9-9.4,8.8994h-10.6q-9.3,0-9.3-8.8994v-45q0-8.7993,9.3-8.8008h10.6q9.3984,0,9.4,8.8008Z"/><path class="cls-4" d="M506.1094,131.6165l-2.5-14.5h-13.2l-2.3,14.5h-9l11.1-62.6006H503.31l11.8994,62.6006Zm-14.6005-21.8h10.9l-5.7-33Z"/><path class="cls-4" d="M543.9083,69.0159h8.3v62.6006h-9.1l-13.2-45.2v45.2h-8.3V69.0159h9.5l12.8,43.9Z"/><path class="cls-5" d="M340.0694,131.3323l-2.5-14.5h-13.2l-2.3,14.5h-9l11.1-62.6H337.27l11.8994,62.6Zm-14.6006-21.8h10.9l-5.7-33Z"/><path class="cls-5" d="M382.8682,76.0325h-18.2v20.6h14.4v7.1006h-14.4v27.6h-9.1v-62.6h27.3Z"/><path class="cls-5" d="M397.7667,106.0325v25.3h-9v-62.6h20.5q9.3,0,9.3,8.8v19.6q0,7.6011-6.7,8.7l9.9,25.5h-9.7l-9.4-25.3Zm0-30v22.8h8.8a3.7075,3.7075,0,0,0,2.4-.55,3.2671,3.2671,0,0,0,.6-2.35v-17a3.2718,3.2718,0,0,0-.6-2.3506,3.72,3.72,0,0,0-2.4-.55Z"/><path class="cls-5" d="M429.1661,68.7327h9v62.6h-9Z"/><path class="cls-5" d="M478.1651,88.3323h-9.2v-9.6a3.4929,3.4929,0,0,0-.55-2.3506,3.4915,3.4915,0,0,0-2.35-.55h-5.1006a3.7147,3.7147,0,0,0-2.3994.55,3.2663,3.2663,0,0,0-.6006,2.3506v42.7a3.2616,3.2616,0,0,0,.6006,2.35,3.7023,3.7023,0,0,0,2.3994.55h5.1006a2.2877,2.2877,0,0,0,2.8994-2.8994v-9.5h9.2v10.6q0,8.9019-9.4,8.9h-10.6q-9.3,0-9.3-8.9v-45q0-8.7978,9.3-8.8h10.6q9.3984,0,9.4,8.8Z"/><path class="cls-5" d="M510.0655,131.3323l-2.5-14.5h-13.2l-2.3,14.5h-9l11.1-62.6h13.1006l11.8994,62.6Zm-14.6006-21.8h10.9l-5.7-33Z"/><path class="cls-5" d="M547.8643,68.7327h8.3v62.6h-9.1l-13.2-45.2v45.2h-8.3v-62.6h9.5l12.8,43.8994Z"/><path class="cls-4" d="M600.25,128.09h-18.2v20.6h14.4V155.79h-14.4v27.6h-9.1v-62.6h27.3Z"/><path class="cls-4" d="M615.0479,120.79h11.1006q9.3,0,9.3,8.8v45q0,8.8008-9.3,8.8H615.0479q-9.4,0-9.3994-8.8v-45Q605.6485,120.7923,615.0479,120.79Zm11.4,52.3994V130.9905a3.2718,3.2718,0,0,0-.6-2.3506,3.72,3.72,0,0,0-2.4-.55h-5.8a2.2883,2.2883,0,0,0-2.9,2.9V173.19a2.2883,2.2883,0,0,0,2.9,2.9h5.8a3.7075,3.7075,0,0,0,2.4-.55A3.27,3.27,0,0,0,626.4483,173.19Z"/><path class="cls-4" d="M654.3467,120.79h11.1006q9.3,0,9.3,8.8v45q0,8.8008-9.3,8.8H654.3467q-9.4,0-9.3994-8.8v-45Q644.9473,120.7923,654.3467,120.79Zm11.4,52.3994V130.9905a3.2718,3.2718,0,0,0-.6-2.3506,3.72,3.72,0,0,0-2.4-.55h-5.8a2.2883,2.2883,0,0,0-2.9,2.9V173.19a2.2883,2.2883,0,0,0,2.9,2.9h5.8a3.7075,3.7075,0,0,0,2.4-.55A3.27,3.27,0,0,0,665.7471,173.19Z"/><path class="cls-4" d="M684.9464,120.79h21.8q9.3,0,9.3,8.8v45q0,8.8008-9.3,8.8h-21.8Zm22,52.6v-42.6a3.2663,3.2663,0,0,0-.6006-2.3506,3.7167,3.7167,0,0,0-2.3994-.55h-9.9v48.4h9.9a3.7042,3.7042,0,0,0,2.3994-.55A3.2646,3.2646,0,0,0,706.9464,173.39Z"/><path class="cls-5" d="M604.2579,128.2327h-18.2v20.6h14.4v7.1h-14.4v27.6006h-9.1V120.9319h27.3Z"/><path class="cls-5" d="M619.0557,120.9319h11.1006q9.3,0,9.3,8.8008v45q0,8.8008-9.3,8.8H619.0557q-9.4,0-9.3994-8.8v-45Q609.6563,120.9334,619.0557,120.9319Zm11.4,52.4v-42.2a3.2688,3.2688,0,0,0-.6-2.35,3.7138,3.7138,0,0,0-2.4-.55h-5.8a2.288,2.288,0,0,0-2.9,2.8994v42.2a2.2888,2.2888,0,0,0,2.9,2.9h5.8a3.7065,3.7065,0,0,0,2.4-.5508A3.2655,3.2655,0,0,0,630.4561,173.3323Z"/><path class="cls-5" d="M658.3546,120.9319h11.1005q9.3,0,9.3,8.8008v45q0,8.8008-9.3,8.8H658.3546q-9.4,0-9.3995-8.8v-45Q648.9551,120.9334,658.3546,120.9319Zm11.4,52.4v-42.2a3.2683,3.2683,0,0,0-.6-2.35,3.7138,3.7138,0,0,0-2.4-.55h-5.8a2.288,2.288,0,0,0-2.9,2.8994v42.2a2.2888,2.2888,0,0,0,2.9,2.9h5.8a3.7065,3.7065,0,0,0,2.4-.5508A3.265,3.265,0,0,0,669.7549,173.3323Z"/><path class="cls-5" d="M688.9542,120.9319h21.8q9.3,0,9.3,8.8008v45q0,8.8008-9.3,8.8h-21.8Zm22,52.6006V130.9319a3.2649,3.2649,0,0,0-.6006-2.35,3.7167,3.7167,0,0,0-2.3994-.55h-9.9v48.3994h9.9a3.7042,3.7042,0,0,0,2.3994-.55A3.26,3.26,0,0,0,710.9542,173.5325Z"/></svg>
